<svg xmlns="http://www.w3.org/2000/svg" viewBox="0 0 864 864">
    <defs>
        <style>
            .dark {
                fill: #262626;
            }

            .light {
                fill: #ededed;
            }
        </style>
    </defs>
    <g id="ac17a019-c259-44f3-a4d4-e1d55e8509b0" data-name="NOTES">
        <path class="dark"
            d="M25.34,418.54q0-57.71,17.59-102.41t47.86-75.31A205.08,205.08,0,0,1,161.88,194q40.82-16.19,87.27-16.19,44.34,0,79.53,17.95T388.51,237l-66.16,74.61a139.46,139.46,0,0,0-33.08-21.82Q272.38,282,249.15,282a86.88,86.88,0,0,0-39.41,9.15,93.17,93.17,0,0,0-31.67,26Q164.69,334.08,157,358.71t-7.74,55.6q0,64.77,29.56,99.24t76,34.49q22.52,0,40.47-10.21A133.14,133.14,0,0,0,328,511.44l66.16,73.2q-29.56,33.78-66.86,50.67a190.62,190.62,0,0,1-79.54,16.89,249.94,249.94,0,0,1-85.16-14.42,198.73,198.73,0,0,1-70.73-43.64q-30.61-29.21-48.56-73.2T25.34,418.54Z" />
        <rect class="light" x="509.27" y="537.17" width="329.39" height="115.03" />
    </g>
</svg>
